<svg width="15" height="15" viewBox="0 0 15 15" fill="none" xmlns="http://www.w3.org/2000/svg">
<path d="M7.49986 1.07129C11.0503 1.07129 13.9284 3.94946 13.9284 7.49986C13.9284 11.0503 11.0503 13.9284 7.49986 13.9284C3.94946 13.9284 1.07129 11.0503 1.07129 7.49986C1.07129 3.94946 3.94946 1.07129 7.49986 1.07129ZM7.49986 2.14272C4.54119 2.14272 2.14272 4.54119 2.14272 7.49986C2.14272 10.4585 4.54119 12.857 7.49986 12.857C10.4585 12.857 12.857 10.4585 12.857 7.49986C12.857 4.54119 10.4585 2.14272 7.49986 2.14272ZM9.79807 5.51236C10.0073 5.30315 10.3496 5.30315 10.5588 5.51236C10.768 5.72157 10.768 6.06387 10.5588 6.27307L6.80724 10.0215C6.59803 10.2307 6.25883 10.2307 6.04962 10.0215L4.17462 8.14652C3.96542 7.93732 3.96542 7.59812 4.17462 7.38891C4.38383 7.1797 4.72303 7.1797 4.93224 7.38891L6.42843 8.8851L9.79807 5.51236Z" fill="white"/>
</svg>
