<svg width="46" height="46" viewBox="0 0 46 46" fill="none" xmlns="http://www.w3.org/2000/svg">
<path fill-rule="evenodd" clip-rule="evenodd" d="M18.0714 23.0002C18.0714 20.2782 20.278 18.0716 23 18.0716C25.722 18.0716 27.9286 20.2782 27.9286 23.0002C27.9286 25.7222 25.722 27.9288 23 27.9288C20.278 27.9288 18.0714 25.7222 18.0714 23.0002ZM23 14.7859C18.4634 14.7859 14.7857 18.4636 14.7857 23.0002C14.7857 27.5368 18.4634 31.2145 23 31.2145C27.5366 31.2145 31.2143 27.5368 31.2143 23.0002C31.2143 18.4636 27.5366 14.7859 23 14.7859Z" fill="white"/>
<path fill-rule="evenodd" clip-rule="evenodd" d="M20.804 4.92877L20.6786 4.92874C19.9081 4.92847 19.3283 4.92827 18.7713 5.02429C17.3748 5.26503 16.0936 5.95073 15.1187 6.97911C14.7298 7.38931 14.4083 7.87188 13.9811 8.51314L13.9116 8.61747L13.7711 8.82817C13.5593 9.14598 13.5148 9.20913 13.475 9.25763C13.1992 9.59313 12.8019 9.8058 12.3697 9.84914C12.3073 9.8554 12.2301 9.85734 11.8481 9.85734L11.701 9.85731C10.7569 9.85707 10.0895 9.8569 9.50253 9.95148C6.35491 10.4586 3.88699 12.9266 3.37983 16.0742C3.28526 16.6611 3.28543 17.3286 3.28567 18.2727L3.28569 18.4198L3.28569 24.7149C3.28568 26.9542 3.28567 28.7351 3.40306 30.172C3.52328 31.6433 3.77473 32.8979 4.36006 34.0467C5.3051 35.9014 6.81305 37.4094 8.66779 38.3544C9.81655 38.9397 11.0712 39.1912 12.5425 39.3114C13.9793 39.4288 15.7602 39.4288 17.9995 39.4288H28.0005C30.2398 39.4288 32.0206 39.4288 33.4575 39.3114C34.9288 39.1912 36.1834 38.9397 37.3322 38.3544C39.1869 37.4094 40.6949 35.9014 41.6399 34.0467C42.2252 32.8979 42.4767 31.6433 42.5969 30.172C42.7143 28.7351 42.7143 26.9543 42.7143 24.715V18.4198L42.7143 18.2727C42.7145 17.3286 42.7147 16.6611 42.6201 16.0742C42.113 12.9266 39.645 10.4586 36.4974 9.95148C35.9105 9.8569 35.243 9.85707 34.2989 9.85731L34.1518 9.85734C33.7699 9.85734 33.6927 9.8554 33.6302 9.84914C33.1981 9.8058 32.8007 9.59313 32.525 9.25763C32.4851 9.20914 32.4407 9.14598 32.2288 8.82817L32.0883 8.61747L32.0188 8.5131C31.5916 7.87187 31.2702 7.3893 30.8813 6.97911C29.9064 5.95073 28.6251 5.26503 27.2287 5.02429C26.6717 4.92827 26.0918 4.92847 25.3213 4.92874L25.1959 4.92877H20.804ZM20.804 8.21448C19.8537 8.21448 19.5738 8.22012 19.3295 8.26225C18.6312 8.38261 17.9906 8.72546 17.5032 9.23965C17.3326 9.4196 17.1726 9.64934 16.6455 10.4401L16.505 10.6508L16.4718 10.7007C16.3116 10.9411 16.1714 11.1517 16.0134 11.3439C15.1861 12.3504 13.994 12.9884 12.6976 13.1185C12.45 13.1433 12.197 13.1432 11.9081 13.1431L11.8481 13.1431C10.6977 13.1431 10.3171 13.1483 10.0252 13.1954C8.27653 13.4771 6.90546 14.8482 6.62371 16.5969C6.57668 16.8887 6.57141 17.2693 6.57141 18.4198V24.6431C6.57141 26.9704 6.57269 28.6171 6.67786 29.9044C6.78148 31.1726 6.97767 31.9466 7.28765 32.555C7.91768 33.7915 8.92298 34.7968 10.1595 35.4268C10.7678 35.7368 11.5419 35.933 12.8101 36.0366C14.0974 36.1418 15.7441 36.1431 18.0714 36.1431H27.9286C30.2559 36.1431 31.9026 36.1418 33.1899 36.0366C34.458 35.933 35.2321 35.7368 35.8405 35.4268C37.077 34.7968 38.0823 33.7915 38.7123 32.555C39.0223 31.9466 39.2185 31.1726 39.3221 29.9044C39.4273 28.6171 39.4286 26.9704 39.4286 24.6431V18.4198C39.4286 17.2693 39.4233 16.8887 39.3763 16.5969C39.0945 14.8482 37.7234 13.4771 35.9747 13.1954C35.6829 13.1483 35.3023 13.1431 34.1518 13.1431L34.0918 13.1431C33.803 13.1432 33.55 13.1433 33.3024 13.1185C32.006 12.9884 30.8139 12.3504 29.9866 11.3439C29.8286 11.1517 29.6883 10.9411 29.5282 10.7007L29.4949 10.6508L29.3545 10.4401C28.8273 9.64934 28.6674 9.4196 28.4968 9.23965C28.0093 8.72546 27.3687 8.38261 26.6705 8.26225C26.4261 8.22012 26.1463 8.21448 25.1959 8.21448H20.804Z" fill="white"/>
</svg>
