<svg width="28" height="28" viewBox="0 0 28 28" fill="none" xmlns="http://www.w3.org/2000/svg">
<path d="M12.5901 16.8301C12.2001 17.2201 11.5601 17.2201 11.1701 16.8301C9.22012 14.8801 9.22012 11.7101 11.1701 9.76012L16.4101 4.52012C18.3601 2.57012 21.5301 2.57012 23.4801 4.52012C25.4301 6.47012 25.4301 9.64012 23.4801 11.5901L22.0442 13.026C21.6546 13.4156 21.0231 13.4162 20.6329 13.0272C20.2428 12.6384 20.2415 12.007 20.6301 11.6167L22.0601 10.1801C23.2401 9.01012 23.2401 7.11012 22.0601 5.94012C20.8901 4.76012 18.9901 4.76012 17.8201 5.94012L12.5901 11.1701C11.4101 12.3401 11.4101 14.2401 12.5901 15.4101C13.0001 15.8001 13.0001 16.4401 12.5901 16.8301ZM15.4101 11.1701C15.8001 10.7801 16.4401 10.7801 16.8301 11.1701C18.7801 13.1201 18.7801 16.2901 16.8301 18.2401L11.5901 23.4801C9.64012 25.4301 6.47012 25.4301 4.52012 23.4801C2.57012 21.5301 2.57012 18.3601 4.52012 16.4101L5.95159 14.9786C6.3417 14.5877 6.97487 14.5877 7.36539 14.9782C7.36553 14.9784 7.36567 14.9785 7.36539 14.9791L7.36618 14.9798C7.7559 15.3708 7.75572 16.0037 7.36577 16.3945L5.94012 17.8201C4.76012 18.9901 4.76012 20.8901 5.94012 22.0601C7.11012 23.2401 9.01012 23.2401 10.1801 22.0601L15.4101 16.8301C16.5901 15.6601 16.5901 13.7601 15.4101 12.5901C15.0001 12.2001 15.0001 11.5601 15.4101 11.1701Z" fill="#2688EB"/>
</svg>
