<svg width="18" height="18" viewBox="0 0 18 18" fill="none" xmlns="http://www.w3.org/2000/svg">
<g clip-path="url(#clip0_3001_1928)">
<path d="M4.84818 10.0745L11.1657 3.60375C11.2334 3.53442 11.7749 2.97979 12.6323 2.67936C13.8281 2.28649 15.0465 2.61003 16.0167 3.60375C17.0095 4.59748 17.3028 5.8223 16.9192 7.04712C16.6485 7.92529 16.0844 8.52615 16.0167 8.59548L9.22534 15.5515C8.05208 16.7533 5.11893 18.3016 2.41141 15.5515C-0.27355 12.8015 1.26071 9.77408 2.41141 8.59548L9.69915 1.10789C9.9699 0.830573 10.3986 0.830573 10.6693 1.10789C10.9401 1.38521 10.9401 1.8243 10.6693 2.10161L3.40417 9.5892C3.29135 9.68164 1.01252 12.1082 3.40417 14.5578C5.72812 16.9381 8.00695 14.812 8.25514 14.5578L15.0465 7.57865C15.0465 7.57865 15.4301 7.18578 15.6106 6.63114C15.8362 5.89163 15.6783 5.24455 15.0465 4.59748C13.6927 3.21089 12.3841 4.36638 12.1359 4.59748L5.81837 11.0451C5.59274 11.2762 5.43481 11.6691 5.81837 12.062C6.20194 12.4548 6.56294 12.2699 6.78857 12.062L11.1657 7.57865C11.4365 7.32444 11.8877 7.32444 12.1359 7.57865C12.4067 7.85596 12.4067 8.31816 12.1359 8.59548L7.75876 13.0557C7.14957 13.6565 5.90862 14.1418 4.84818 13.0557C3.76517 11.9695 4.23898 10.6754 4.84818 10.0745Z" fill="white"/>
</g>
<defs>
<clipPath id="clip0_3001_1928">
<rect width="18" height="18" fill="white"/>
</clipPath>
</defs>
</svg>
