<svg width="15" height="15" viewBox="0 0 15 15" fill="none" xmlns="http://www.w3.org/2000/svg">
<g clip-path="url(#clip0_3001_1836)">
<path d="M0 6.06669C0 9.41508 2.7146 12.1348 6.05376 12.1348C7.29557 12.1348 8.43521 11.7522 9.38535 11.1065L12.802 14.5373C13.0159 14.7517 13.2992 14.8538 13.5974 14.8538C14.2303 14.8538 14.6829 14.3744 14.6829 13.7475C14.6829 13.4526 14.5749 13.1773 14.3706 12.9725L10.9802 9.55449C11.69 8.57572 12.1075 7.37243 12.1075 6.06669C12.1075 2.71968 9.39291 0 6.05376 0C2.7146 0 0 2.71968 0 6.06669ZM1.5769 6.06669C1.5769 3.5908 3.58366 1.58062 6.05376 1.58062C8.52385 1.58062 10.5293 3.5908 10.5293 6.06669C10.5293 8.54396 8.52385 10.5541 6.05376 10.5541C3.58366 10.5541 1.5769 8.54396 1.5769 6.06669Z" fill="white"/>
</g>
<defs>
<clipPath id="clip0_3001_1836">
<rect width="14.6829" height="14.8552" fill="white"/>
</clipPath>
</defs>
</svg>
