<svg width="21" height="21" viewBox="0 0 21 21" fill="none" xmlns="http://www.w3.org/2000/svg">
<path d="M10.5 1.5C15.4694 1.5 19.5 5.52923 19.5 10.5C19.5 15.4708 15.4694 19.5 10.5 19.5C5.52923 19.5 1.5 15.4708 1.5 10.5C1.5 5.52923 5.52923 1.5 10.5 1.5ZM10.5 3C6.35766 3 3 6.35766 3 10.5C3 14.6423 6.35766 18 10.5 18C14.6415 18 18 14.6418 18 10.5C18 6.35817 14.6415 3 10.5 3ZM10.125 6.00006C10.5392 6.00006 10.875 6.33585 10.875 6.75006V10.5778L14.5309 12.0547C14.915 12.2098 15.1006 12.6469 14.9454 13.031C14.7902 13.415 14.3531 13.6006 13.9691 13.4455L9.84408 11.7791C9.56059 11.6645 9.375 11.3894 9.375 11.0837V6.75006C9.375 6.33585 9.71079 6.00006 10.125 6.00006Z" fill="white"/>
</svg>
