<svg width="128" height="128" viewBox="0 0 128 128" fill="none" xmlns="http://www.w3.org/2000/svg">
<rect width="128" height="128" rx="32" fill="url(#paint0_linear_1974_1980)"/>
<path d="M104.942 60.3907L99.6091 55.0574C99.4853 54.9335 99.3384 54.8353 99.1766 54.7683C99.0148 54.7012 98.8415 54.6667 98.6664 54.6667C98.4913 54.6667 98.3179 54.7012 98.1562 54.7683C97.9944 54.8353 97.8474 54.9335 97.7237 55.0574L92.3903 60.3907C92.2665 60.5145 92.1683 60.6614 92.1012 60.8232C92.0342 60.9849 91.9997 61.1583 91.9998 61.3334V74.6667C91.9997 74.8418 92.0342 75.0152 92.1012 75.177C92.1681 75.3388 92.2664 75.4858 92.3902 75.6096C92.514 75.7334 92.661 75.8317 92.8228 75.8986C92.9846 75.9656 93.158 76.0001 93.3331 76H104C104.175 76.0001 104.348 75.9656 104.51 75.8986C104.672 75.8317 104.819 75.7334 104.943 75.6096C105.066 75.4858 105.165 75.3388 105.232 75.177C105.299 75.0152 105.333 74.8418 105.333 74.6667V61.3334C105.333 61.1583 105.299 60.9849 105.232 60.8232C105.165 60.6614 105.066 60.5145 104.942 60.3907Z" fill="white"/>
<path d="M81.3331 44H41.3331C41.158 44 40.9846 44.0344 40.8228 44.1014C40.661 44.1684 40.514 44.2666 40.3902 44.3904C40.2664 44.5142 40.1681 44.6612 40.1012 44.823C40.0342 44.9848 39.9997 45.1582 39.9998 45.3333V65.3333C39.9997 65.5871 40.0721 65.8356 40.2084 66.0497C40.3447 66.2637 40.5393 66.4344 40.7693 66.5417L60.7693 75.875C60.9458 75.9573 61.1383 76 61.3331 76C61.5279 76 61.7203 75.9573 61.8969 75.875L81.8969 66.5417C82.1269 66.4344 82.3215 66.2637 82.4578 66.0497C82.5941 65.8356 82.6665 65.5871 82.6664 65.3333V45.3333C82.6665 45.1582 82.632 44.9848 82.565 44.823C82.498 44.6612 82.3998 44.5142 82.276 44.3904C82.1522 44.2666 82.0052 44.1684 81.8434 44.1014C81.6816 44.0344 81.5082 44 81.3331 44Z" fill="white"/>
<path d="M81.3331 44H41.3331C41.158 44 40.9846 44.0344 40.8228 44.1014C40.661 44.1684 40.514 44.2666 40.3902 44.3904C40.2664 44.5142 40.1681 44.6612 40.1012 44.823C40.0342 44.9848 39.9997 45.1582 39.9998 45.3333V58.183L60.7693 67.875C60.9458 67.9574 61.1383 68 61.3331 68C61.5279 68 61.7203 67.9574 61.8969 67.875L82.6664 58.1829V45.3333C82.6665 45.1582 82.632 44.9848 82.565 44.823C82.498 44.6612 82.3998 44.5142 82.276 44.3904C82.1522 44.2666 82.0052 44.1684 81.8434 44.1014C81.6816 44.0344 81.5082 44 81.3331 44Z" fill="white"/>
<path d="M99.2277 38.7904L61.8944 21.457C61.7184 21.376 61.5269 21.334 61.3332 21.334C61.1394 21.334 60.948 21.376 60.772 21.457L23.4386 38.7904C23.208 38.8974 23.0128 39.0681 22.876 39.2825C22.7392 39.4968 22.6665 39.7457 22.6665 40C22.6665 40.2543 22.7392 40.5032 22.876 40.7175C23.0128 40.9319 23.208 41.1026 23.4386 41.2096L60.772 58.543C60.9478 58.6245 61.1393 58.6667 61.3332 58.6667C61.527 58.6667 61.7185 58.6245 61.8944 58.543L99.2277 41.2096C99.4583 41.1026 99.6536 40.9319 99.7904 40.7175C99.9272 40.5032 99.9998 40.2543 99.9998 40C99.9998 39.7457 99.9272 39.4968 99.7904 39.2825C99.6536 39.0681 99.4583 38.8974 99.2277 38.7904Z" fill="white"/>
<path d="M98.6664 52.0001C98.4913 52.0001 98.3179 51.9657 98.1561 51.8987C97.9943 51.8317 97.8473 51.7335 97.7235 51.6097C97.5997 51.4858 97.5015 51.3388 97.4345 51.177C97.3675 51.0153 97.333 50.8419 97.3331 50.6667V41.3334H61.3331C60.9795 41.3334 60.6403 41.1929 60.3903 40.9429C60.1402 40.6928 59.9998 40.3537 59.9998 40.0001C59.9998 39.6465 60.1402 39.3073 60.3903 39.0573C60.6403 38.8072 60.9795 38.6667 61.3331 38.6667H98.6664C98.8415 38.6667 99.0149 38.7012 99.1767 38.7681C99.3385 38.8351 99.4855 38.9334 99.6093 39.0572C99.7332 39.181 99.8314 39.328 99.8984 39.4898C99.9653 39.6516 99.9998 39.825 99.9998 40.0001V50.6667C99.9998 50.8419 99.9653 51.0153 99.8984 51.177C99.8314 51.3388 99.7332 51.4858 99.6093 51.6097C99.4855 51.7335 99.3385 51.8317 99.1767 51.8987C99.0149 51.9657 98.8415 52.0001 98.6664 52.0001Z" fill="white"/>
<path d="M98.6663 59.9999C101.612 59.9999 104 57.6121 104 54.6666C104 51.7211 101.612 49.3333 98.6663 49.3333C95.7208 49.3333 93.333 51.7211 93.333 54.6666C93.333 57.6121 95.7208 59.9999 98.6663 59.9999Z" fill="white"/>
<path d="M87.6971 101.286C85.9112 100.799 83.9998 96.4153 83.9998 90.6666C83.9998 84.9179 85.9112 80.5338 87.6971 80.0468C88.0252 79.9572 88.3067 79.7457 88.484 79.4554C88.6613 79.1652 88.721 78.8182 88.6509 78.4854C88.5808 78.1525 88.3862 77.8591 88.1068 77.665C87.8275 77.471 87.4846 77.3909 87.1483 77.4413L61.3331 81.3189L35.5095 77.44L34.8559 77.3463C34.7931 77.3374 34.7298 77.3331 34.6664 77.3333C30.8656 77.3333 27.9998 83.065 27.9998 90.6666C27.9998 98.2682 30.8656 104 34.6664 104C34.7298 104 34.7931 103.996 34.8559 103.987L61.3331 100.014L87.1482 103.892C87.4846 103.942 87.8275 103.862 88.1068 103.668C88.3861 103.474 88.5807 103.181 88.6508 102.848C88.7209 102.515 88.6612 102.168 88.4839 101.878C88.3066 101.588 88.0252 101.376 87.6971 101.286Z" fill="white"/>
<path d="M66.6666 78.6667H55.9999C55.2929 78.6676 54.6151 78.9488 54.1152 79.4487C53.6153 79.9486 53.3341 80.6264 53.3333 81.3334V105.333C53.3333 105.551 53.3867 105.766 53.4889 105.958C53.591 106.151 53.7388 106.315 53.9192 106.438C54.0997 106.56 54.3073 106.636 54.5239 106.659C54.7406 106.683 54.9597 106.653 55.162 106.572L61.3333 104.103L67.5045 106.572C67.7068 106.653 67.9259 106.683 68.1426 106.659C68.3592 106.636 68.5669 106.56 68.7473 106.438C68.9277 106.315 69.0755 106.151 69.1776 105.958C69.2798 105.766 69.3332 105.551 69.3333 105.333V81.3334C69.3324 80.6264 69.0512 79.9486 68.5513 79.4487C68.0514 78.9488 67.3736 78.6676 66.6666 78.6667Z" fill="white"/>
<path d="M48.408 98.808C47.992 98.808 47.504 98.704 46.944 98.496C46.384 98.272 45.832 97.992 45.288 97.656C44.76 97.32 44.32 96.976 43.968 96.624C43.616 96.256 43.44 95.92 43.44 95.616C43.44 95.2 43.464 94.616 43.512 93.864C43.56 93.112 43.584 92.08 43.584 90.768V89.664C43.584 88.896 43.616 88.144 43.68 87.408C43.744 86.672 43.864 86.088 44.04 85.656H43.176L42 84.048L42.168 83.664H45.24L46.584 85.536C46.408 86.032 46.264 86.64 46.152 87.36C46.056 88.08 46.008 88.888 46.008 89.784V90.936C46.008 92.152 46 93.096 45.984 93.768C45.968 94.44 45.952 94.936 45.936 95.256C45.92 95.576 45.912 95.8 45.912 95.928C45.912 96.392 46.208 96.624 46.8 96.624C47.792 96.624 48.472 96.36 48.84 95.832C49.224 95.304 49.416 94.432 49.416 93.216V89.664C49.416 88.896 49.448 88.144 49.512 87.408C49.576 86.672 49.696 86.088 49.872 85.656H49.008L47.832 84.048L48 83.664H51.072L52.416 85.536C52.24 86.032 52.096 86.64 51.984 87.36C51.888 88.08 51.84 88.888 51.84 89.784V94.92C51.84 97.512 50.696 98.808 48.408 98.808ZM55.29 98.88L53.49 96.984V96.72C53.762 96.4 54.058 96.096 54.378 95.808C54.714 95.52 55.074 95.264 55.458 95.04L57.258 96.888L57.234 97.2C56.882 97.456 56.546 97.736 56.226 98.04C55.906 98.328 55.594 98.608 55.29 98.88ZM61.7764 98.976C60.7204 98.624 59.9204 98.296 59.3764 97.992C58.8324 97.688 58.5604 97.44 58.5604 97.248C58.5604 97.072 58.5764 96.888 58.6084 96.696C58.6404 96.504 58.6724 96.224 58.7044 95.856C58.7364 95.488 58.7524 94.96 58.7524 94.272V89.784C58.7524 88.728 58.7924 87.872 58.8724 87.216C58.9684 86.544 59.0644 86.024 59.1604 85.656H58.3444L57.1444 84.048L57.3364 83.664H64.9684L66.1444 85.344L64.9204 86.424H64.4404C64.2804 86.184 64.0804 86 63.8404 85.872C63.6164 85.728 63.3204 85.656 62.9524 85.656H61.6564C61.5444 86.088 61.4324 86.632 61.3204 87.288C61.2244 87.944 61.1764 88.72 61.1764 89.616V90.24H64.5124L65.5444 91.896L65.3764 92.304H61.1764V94.8C61.1764 95.488 61.1524 96.04 61.1044 96.456C61.0724 96.856 61.0564 97.168 61.0564 97.392C61.0564 97.664 61.4004 97.96 62.0884 98.28L61.7764 98.976ZM66.7284 98.88L64.9284 96.984V96.72C65.2004 96.4 65.4964 96.096 65.8164 95.808C66.1524 95.52 66.5124 95.264 66.8964 95.04L68.6964 96.888L68.6724 97.2C68.3204 97.456 67.9844 97.736 67.6644 98.04C67.3444 98.328 67.0324 98.608 66.7284 98.88ZM75.4948 98.664C74.7748 98.664 74.0708 98.608 73.3828 98.496C72.6948 98.384 72.0788 98.248 71.5348 98.088C71.0068 97.928 70.5828 97.76 70.2628 97.584C69.9428 97.408 69.7828 97.248 69.7828 97.104C69.7828 96.704 69.8308 96.144 69.9268 95.424C70.0388 94.704 70.0948 93.712 70.0948 92.448V89.784C70.0948 88.728 70.1348 87.872 70.2148 87.216C70.3108 86.544 70.4068 86.024 70.5028 85.656H69.6868L68.4868 84.048L68.6788 83.664H70.5988C71.3508 83.664 71.9508 83.648 72.3988 83.616C72.8628 83.584 73.3268 83.568 73.7908 83.568C74.2068 83.568 74.6628 83.696 75.1588 83.952C75.6548 84.208 76.1268 84.536 76.5748 84.936C77.0388 85.336 77.4148 85.752 77.7028 86.184C78.0068 86.6 78.1588 86.968 78.1588 87.288V88.368C78.1588 89.104 78.0388 89.76 77.7988 90.336C77.5748 90.912 77.2388 91.36 76.7908 91.68C77.4148 92.144 77.8708 92.632 78.1588 93.144C78.4628 93.64 78.6148 94.2 78.6148 94.824V95.304C78.6148 96.424 78.3348 97.264 77.7748 97.824C77.2308 98.384 76.4708 98.664 75.4948 98.664ZM74.7988 85.656C74.5108 85.656 74.2068 85.672 73.8868 85.704C73.5828 85.72 73.2708 85.752 72.9508 85.8C72.8388 86.232 72.7348 86.768 72.6388 87.408C72.5588 88.032 72.5188 88.768 72.5188 89.616V90.072H73.9828C74.3348 90.072 74.6468 90.024 74.9188 89.928C75.1908 89.816 75.3988 89.6 75.5428 89.28C75.7028 88.96 75.7828 88.48 75.7828 87.84V86.88C75.7828 86.4 75.7108 86.08 75.5668 85.92C75.4228 85.744 75.1668 85.656 74.7988 85.656ZM72.5188 93.528C72.5188 94.184 72.5028 94.76 72.4708 95.256C72.4388 95.736 72.3988 96.176 72.3508 96.576C72.7508 96.672 73.1428 96.72 73.5268 96.72C74.5028 96.72 75.1748 96.504 75.5428 96.072C75.9268 95.64 76.1188 95.072 76.1188 94.368V93.984C76.1188 93.12 75.9428 92.576 75.5908 92.352C75.2388 92.112 74.7668 91.992 74.1748 91.992H72.5188V93.528Z" fill="#6430F4"/>
<path d="M87.9999 77.3333C87.9365 77.3331 87.8732 77.3374 87.8105 77.3463L87.1568 77.44C87.1024 77.4481 87.0484 77.4594 86.9954 77.4739C83.6614 78.384 81.3333 83.8085 81.3333 90.6666C81.3333 97.5247 83.6614 102.949 86.9954 103.859C87.0484 103.874 87.1024 103.885 87.1568 103.893L87.8105 103.987C87.8732 103.996 87.9365 104 87.9999 104C91.8007 104 94.6666 98.2682 94.6666 90.6666C94.6666 83.065 91.8007 77.3333 87.9999 77.3333Z" fill="white"/>
<path d="M85.3333 89.3333H81.3644C81.3446 89.7712 81.3333 90.2153 81.3333 90.6666C81.3333 97.5247 83.6614 102.949 86.9954 103.859C87.0484 103.874 87.1024 103.885 87.1568 103.893L87.8105 103.987C87.8732 103.996 87.9365 104 87.9999 104C88.4557 103.998 88.9074 103.914 89.3333 103.752V93.3333C89.3321 92.2727 88.9103 91.256 88.1604 90.5061C87.4105 89.7562 86.3938 89.3344 85.3333 89.3333Z" fill="white"/>
<defs>
<linearGradient id="paint0_linear_1974_1980" x1="64" y1="0" x2="64" y2="128" gradientUnits="userSpaceOnUse">
<stop stop-color="#C072E2"/>
<stop offset="1" stop-color="#6130B6"/>
</linearGradient>
</defs>
</svg>
